<svg width="75" height="75" viewBox="0 0 75 75" fill="none" xmlns="http://www.w3.org/2000/svg">
<g filter="url(#filter0_d)">
<path fill-rule="evenodd" clip-rule="evenodd" d="M34.375 21.875H53.125V28.125H34.375V21.875ZM34.375 34.375H53.125V40.625H34.375V34.375ZM34.375 46.875H53.125V53.125H34.375V46.875ZM21.875 21.875H28.125V28.125H21.875V21.875ZM21.875 34.375H28.125V40.625H21.875V34.375ZM21.875 46.875H28.125V53.125H21.875V46.875ZM62.8125 9.375H12.1875C10.625 9.375 9.375 10.625 9.375 12.1875V62.8125C9.375 64.0625 10.625 65.625 12.1875 65.625H62.8125C64.0625 65.625 65.625 64.0625 65.625 62.8125V12.1875C65.625 10.625 64.0625 9.375 62.8125 9.375ZM59.375 59.375H15.625V15.625H59.375V59.375Z" fill="white"/>
</g>
<defs>
<filter id="filter0_d" x="5.375" y="7.375" width="64.25" height="64.25" filterUnits="userSpaceOnUse" color-interpolation-filters="sRGB">
<feFlood flood-opacity="0" result="BackgroundImageFix"/>
<feColorMatrix in="SourceAlpha" type="matrix" values="0 0 0 0 0 0 0 0 0 0 0 0 0 0 0 0 0 0 127 0"/>
<feOffset dy="2"/>
<feGaussianBlur stdDeviation="2"/>
<feColorMatrix type="matrix" values="0 0 0 0 0 0 0 0 0 0 0 0 0 0 0 0 0 0 0.25 0"/>
<feBlend mode="normal" in2="BackgroundImageFix" result="effect1_dropShadow"/>
<feBlend mode="normal" in="SourceGraphic" in2="effect1_dropShadow" result="shape"/>
</filter>
</defs>
</svg>
