<svg width="75" height="75" viewBox="0 0 75 75" fill="none" xmlns="http://www.w3.org/2000/svg">
<g filter="url(#filter0_d)">
<path fill-rule="evenodd" clip-rule="evenodd" d="M21.875 46.875H43.75V53.125H21.875V46.875ZM21.875 34.375H53.125V40.625H21.875V34.375ZM21.875 21.875H53.125V28.125H21.875V21.875ZM59.375 9.375H46.3125C45 5.75 41.5625 3.125 37.5 3.125C33.4375 3.125 30 5.75 28.6875 9.375H15.625C15.1875 9.375 14.7812 9.40625 14.375 9.5C13.1562 9.75 12.0625 10.375 11.2187 11.2188C10.6562 11.7812 10.1875 12.4688 9.875 13.2188C9.5625 13.9375 9.375 14.75 9.375 15.625V59.375C9.375 60.2188 9.5625 61.0625 9.875 61.8125C10.1875 62.5625 10.6562 63.2188 11.2187 63.8125C12.0625 64.6562 13.1562 65.2812 14.375 65.5312C14.7812 65.5937 15.1875 65.625 15.625 65.625H59.375C62.8125 65.625 65.625 62.8125 65.625 59.375V15.625C65.625 12.1875 62.8125 9.375 59.375 9.375ZM37.5 8.59375C38.7812 8.59375 39.8438 9.65625 39.8438 10.9375C39.8438 12.2188 38.7812 13.2812 37.5 13.2812C36.2188 13.2812 35.1562 12.2188 35.1562 10.9375C35.1562 9.65625 36.2188 8.59375 37.5 8.59375ZM59.375 59.375H15.625V15.625H59.375V59.375Z" fill="white"/>
</g>
<defs>
<filter id="filter0_d" x="5.375" y="1.125" width="64.25" height="70.5" filterUnits="userSpaceOnUse" color-interpolation-filters="sRGB">
<feFlood flood-opacity="0" result="BackgroundImageFix"/>
<feColorMatrix in="SourceAlpha" type="matrix" values="0 0 0 0 0 0 0 0 0 0 0 0 0 0 0 0 0 0 127 0"/>
<feOffset dy="2"/>
<feGaussianBlur stdDeviation="2"/>
<feColorMatrix type="matrix" values="0 0 0 0 0 0 0 0 0 0 0 0 0 0 0 0 0 0 0.25 0"/>
<feBlend mode="normal" in2="BackgroundImageFix" result="effect1_dropShadow"/>
<feBlend mode="normal" in="SourceGraphic" in2="effect1_dropShadow" result="shape"/>
</filter>
</defs>
</svg>
