<?xml version="1.0" encoding="UTF-8"?>
<!DOCTYPE svg PUBLIC "-//W3C//DTD SVG 1.1//EN" "http://www.w3.org/Graphics/SVG/1.1/DTD/svg11.dtd">
<!-- Creator: CorelDRAW X7 -->
<svg xmlns="http://www.w3.org/2000/svg" xml:space="preserve" width="984px" height="515px" version="1.1" style="shape-rendering:geometricPrecision; text-rendering:geometricPrecision; image-rendering:optimizeQuality; fill-rule:evenodd; clip-rule:evenodd"
viewBox="0 0 636 333"
 xmlns:xlink="http://www.w3.org/1999/xlink">
 <defs>
  <style type="text/css">
   <![CDATA[
    .str5 {stroke:white;stroke-width:5.7271}
    .str3 {stroke:white;stroke-width:5.7271}
    .str2 {stroke:white;stroke-width:5.7271}
    .str0 {stroke:white;stroke-width:5.7271}
    .str1 {stroke:white;stroke-width:5.7271}
    .str4 {stroke:white;stroke-width:5.7271}
    .fil3 {fill:none}
    .fil0 {fill:none;fill-rule:nonzero}
    .fil2 {fill:#3CD296}
    .fil4 {fill:#505050}
    .fil1 {fill:#505050;fill-rule:nonzero}
   ]]>
  </style>
 </defs>
 <g id="Layer_x0020_1">
  <metadata id="CorelCorpID_0Corel-Layer"/>
  <g id="_2479577803040">
   <g>
    <path class="fil0 str0" d="M602 296c6,1 12,-3 16,-5 5,-3 3,-4 10,-6 7,-1 7,2 2,8 -5,4 -16,12 -22,15 -4,2 -7,3 -9,4 -10,2 -25,-7 -30,-15 -5,-6 -6,-13 -6,-21 0,-8 2,-16 6,-23 4,-10 12,-17 20,-20 3,-2 7,-2 10,-2 4,0 7,1 10,2 3,2 6,5 7,9 1,2 2,5 2,8 0,4 -3,9 -7,11 -4,1 -7,0 -7,-5 0,-1 0,-2 -1,-3 0,-2 -2,-4 -3,-5 -2,-1 -4,-1 -6,-1 -2,0 -4,0 -6,1 -3,1 -6,4 -8,8 -2,4 -4,9 -4,14 0,5 2,10 5,14 3,5 6,11 21,12z"/>
    <path id="1" class="fil1" d="M602 296c6,1 12,-3 16,-5 5,-3 3,-4 10,-6 7,-1 7,2 2,8 -5,4 -16,12 -22,15 -4,2 -7,3 -9,4 -10,2 -25,-7 -30,-15 -5,-6 -6,-13 -6,-21 0,-8 2,-16 6,-23 4,-10 12,-17 20,-20 3,-2 7,-2 10,-2 4,0 7,1 10,2 3,2 6,5 7,9 1,2 2,5 2,8 0,4 -3,9 -7,11 -4,1 -7,0 -7,-5 0,-1 0,-2 -1,-3 0,-2 -2,-4 -3,-5 -2,-1 -4,-1 -6,-1 -2,0 -4,0 -6,1 -3,1 -6,4 -8,8 -2,4 -4,9 -4,14 0,5 2,10 5,14 3,5 6,11 21,12z"/>
   </g>
   <path class="fil2" d="M30 291c-2,17 1,27 5,34 10,17 26,6 31,-16 2,-9 1,-20 1,-33 0,-14 1,-30 3,-42 6,-41 18,-93 33,-131 2,-5 14,-35 25,-60 9,-18 17,-33 21,-39 2,-4 1,-6 -2,-2 -13,18 -46,86 -52,97 -23,49 -59,142 -65,192zm76 -18c-8,5 -16,4 -20,1 -11,-10 -8,-25 -1,-35 10,-15 20,-15 38,-44 19,-31 26,-74 23,-111 -1,-17 -3,-33 -5,-45 -1,-7 0,-14 2,-3 3,10 5,19 8,29 14,51 27,103 3,153 -13,27 -33,45 -48,55zm-101 -46c7,22 29,17 21,-8 -6,-19 -9,-35 -2,-59 5,-16 14,-32 22,-42 13,-14 30,-24 41,-30 1,0 2,-1 3,-2 6,-4 -1,-1 -9,2 -20,8 -37,20 -52,35 -22,22 -37,64 -24,104z"/>
   <g>
    <path class="fil3 str1" d="M565 285c8,-1 7,2 2,8 -13,12 -29,19 -45,19 -10,0 -20,-2 -29,-7 -12,5 -26,7 -41,7 -12,0 -22,-6 -28,-15 -2,2 -4,4 -6,6 -23,18 -68,11 -55,-36 4,-17 26,-31 42,-34 3,-1 6,-1 9,-1 0,-7 1,-13 2,-19 7,-32 21,-66 38,-49 6,7 9,22 6,34 -5,25 -10,58 -24,83 6,10 16,15 33,14 4,0 10,-1 13,-2 -18,-39 26,-82 56,-53 5,4 7,13 5,22 -3,12 -13,20 -22,27 -4,3 -7,6 -11,8 4,2 10,4 17,4 10,0 21,-3 28,-10 3,-2 5,-5 10,-6zm-135 -22c-2,-14 -1,-30 0,-44 2,-29 12,-42 16,-39 3,3 3,14 2,25 -2,14 -7,33 -14,49 -1,3 -3,6 -4,9zm95 5c-7,9 -16,15 -25,19 -9,-15 -1,-38 20,-39 10,0 13,11 5,20zm-112 -24c0,7 0,13 0,19 0,7 2,14 4,20 -1,1 -3,2 -4,3 -13,11 -34,11 -32,-9 1,-16 17,-28 32,-33z"/>
    <path id="1" class="fil4" d="M565 285c8,-1 7,2 2,8 -13,12 -29,19 -45,19 -10,0 -20,-2 -29,-7 -12,5 -26,7 -41,7 -12,0 -22,-6 -28,-15 -2,2 -4,4 -6,6 -23,18 -68,11 -55,-36 4,-17 26,-31 42,-34 3,-1 6,-1 9,-1 0,-7 1,-13 2,-19 7,-32 21,-66 38,-49 6,7 9,22 6,34 -5,25 -10,58 -24,83 6,10 16,15 33,14 4,0 10,-1 13,-2 -18,-39 26,-82 56,-53 5,4 7,13 5,22 -3,12 -13,20 -22,27 -4,3 -7,6 -11,8 4,2 10,4 17,4 10,0 21,-3 28,-10 3,-2 5,-5 10,-6zm-135 -22c-2,-14 -1,-30 0,-44 2,-29 12,-42 16,-39 3,3 3,14 2,25 -2,14 -7,33 -14,49 -1,3 -3,6 -4,9zm95 5c-7,9 -16,15 -25,19 -9,-15 -1,-38 20,-39 10,0 13,11 5,20zm-112 -24c0,7 0,13 0,19 0,7 2,14 4,20 -1,1 -3,2 -4,3 -13,11 -34,11 -32,-9 1,-16 17,-28 32,-33z"/>
   </g>
   <g>
    <path class="fil0 str2" d="M311 251c2,-1 3,-2 4,-3 3,-1 6,-1 9,-1 3,1 6,3 8,6 1,1 2,2 3,4 2,3 2,8 2,14 -1,5 -2,10 -4,15 -1,2 -3,5 -5,6 -2,2 -4,3 -6,3 -3,1 -6,0 -9,-2 -3,-1 -5,-4 -7,-7 -1,-3 -2,-7 -2,-11 0,-5 0,-9 1,-13 1,-2 2,-5 3,-7 1,-2 2,-3 3,-4zm51 -2c1,1 2,1 3,2 5,2 3,3 10,4 7,0 7,-3 1,-8 -2,-1 -4,-2 -6,-4 -15,-9 -38,-17 -55,-10 -3,2 -6,3 -8,6 -4,3 -7,7 -10,11 -2,4 -4,9 -5,13 -2,6 -2,13 -2,19 0,6 2,11 4,16 2,5 5,8 9,10 4,3 9,4 14,3 5,0 10,-3 15,-7 5,-4 9,-9 12,-15 4,-7 6,-15 7,-23 0,-7 -1,-14 -2,-19l0 0c4,-1 9,1 13,2z"/>
    <path id="1" class="fil1" d="M311 251c2,-1 3,-2 4,-3 3,-1 6,-1 9,-1 3,1 6,3 8,6 1,1 2,2 3,4 2,3 2,8 2,14 -1,5 -2,10 -4,15 -1,2 -3,5 -5,6 -2,2 -4,3 -6,3 -3,1 -6,0 -9,-2 -3,-1 -5,-4 -7,-7 -1,-3 -2,-7 -2,-11 0,-5 0,-9 1,-13 1,-2 2,-5 3,-7 1,-2 2,-3 3,-4zm51 -2c1,1 2,1 3,2 5,2 3,3 10,4 7,0 7,-3 1,-8 -2,-1 -4,-2 -6,-4 -15,-9 -38,-17 -55,-10 -3,2 -6,3 -8,6 -4,3 -7,7 -10,11 -2,4 -4,9 -5,13 -2,6 -2,13 -2,19 0,6 2,11 4,16 2,5 5,8 9,10 4,3 9,4 14,3 5,0 10,-3 15,-7 5,-4 9,-9 12,-15 4,-7 6,-15 7,-23 0,-7 -1,-14 -2,-19l0 0c4,-1 9,1 13,2z"/>
   </g>
   <g>
    <path class="fil3 str3" d="M270 311c-4,1 -7,1 -10,1 -3,0 -6,-1 -8,-3 -4,-2 -6,-5 -8,-10 0,-2 -2,-6 -2,-12 -1,-20 2,-54 8,-56 2,-1 5,-1 7,0 6,3 8,7 7,12 -3,12 -12,50 4,55 6,2 12,1 17,-1 6,-1 4,-3 11,-2 7,1 6,4 -1,8 -6,3 -18,7 -25,8zm0 -100c0,-11 -7,-16 -13,-16 -13,0 -13,15 -3,21 5,3 17,5 16,-5z"/>
    <path id="1" class="fil4" d="M270 311c-4,1 -7,1 -10,1 -3,0 -6,-1 -8,-3 -4,-2 -6,-5 -8,-10 0,-2 -2,-6 -2,-12 -1,-20 2,-54 8,-56 2,-1 5,-1 7,0 6,3 8,7 7,12 -3,12 -12,50 4,55 6,2 12,1 17,-1 6,-1 4,-3 11,-2 7,1 6,4 -1,8 -6,3 -18,7 -25,8zm0 -100c0,-11 -7,-16 -13,-16 -13,0 -13,15 -3,21 5,3 17,5 16,-5z"/>
   </g>
   <g>
    <path class="fil3 str4" d="M99 287c-1,13 2,19 5,24 8,12 19,3 21,-12 1,-7 0,-15 -1,-24 0,-10 0,-22 1,-30 5,-60 10,-76 29,-129 3,-8 0,-9 -3,-2 -25,56 -48,110 -52,173z"/>
    <path id="1" class="fil4" d="M99 287c-1,13 2,19 5,24 8,12 19,3 21,-12 1,-7 0,-15 -1,-24 0,-10 0,-22 1,-30 5,-60 10,-76 29,-129 3,-8 0,-9 -3,-2 -25,56 -48,110 -52,173z"/>
   </g>
   <g>
    <path class="fil3 str5" d="M188 313c58,-11 47,-81 8,-91 -3,-1 -3,-1 0,-2 15,-9 24,-20 17,-40 -7,-20 -20,-31 -40,-34 -26,-5 -56,5 -71,28 -2,3 -3,5 -2,8 1,3 6,9 8,5 11,-20 39,-27 61,-23 34,8 35,43 -1,50 -6,2 -8,16 -2,18 5,1 11,2 15,3 15,4 25,16 27,29 3,18 -13,29 -31,30 -16,0 -31,-2 -48,-5 0,6 -2,17 -5,22 14,3 41,6 64,2z"/>
    <path id="1" class="fil4" d="M188 313c58,-11 47,-81 8,-91 -3,-1 -3,-1 0,-2 15,-9 24,-20 17,-40 -7,-20 -20,-31 -40,-34 -26,-5 -56,5 -71,28 -2,3 -3,5 -2,8 1,3 6,9 8,5 11,-20 39,-27 61,-23 34,8 35,43 -1,50 -6,2 -8,16 -2,18 5,1 11,2 15,3 15,4 25,16 27,29 3,18 -13,29 -31,30 -16,0 -31,-2 -48,-5 0,6 -2,17 -5,22 14,3 41,6 64,2z"/>
   </g>
  </g>
 </g>
</svg>
