<svg width="75" height="75" viewBox="0 0 75 75" fill="none" xmlns="http://www.w3.org/2000/svg">
<g filter="url(#filter0_d)">
<path fill-rule="evenodd" clip-rule="evenodd" d="M60.7188 40.5625C60.8438 39.5625 60.9375 38.5625 60.9375 37.5C60.9375 36.4375 60.8438 35.4375 60.7188 34.4375L67.3125 29.2812C67.9063 28.8125 68.0625 27.9688 67.6875 27.2812L61.4375 16.4688C61.1563 15.9688 60.625 15.6875 60.0625 15.6875C59.875 15.6875 59.6875 15.7188 59.5313 15.7812L51.75 18.9063C50.125 17.6563 48.375 16.625 46.4688 15.8438L45.2813 7.5625C45.1875 6.8125 44.5313 6.25 43.75 6.25H31.25C30.4688 6.25 29.8125 6.8125 29.7188 7.5625L28.5313 15.8438C26.625 16.625 24.875 17.6875 23.25 18.9063L15.4688 15.7812C15.2813 15.7188 15.0938 15.6875 14.9063 15.6875C14.375 15.6875 13.8438 15.9688 13.5625 16.4688L7.31255 27.2812C6.9063 27.9688 7.0938 28.8125 7.68755 29.2812L14.2813 34.4375C14.1563 35.4375 14.0625 36.4688 14.0625 37.5C14.0625 38.5312 14.1563 39.5625 14.2813 40.5625L7.68755 45.7188C7.0938 46.1875 6.93755 47.0312 7.31255 47.7188L13.5625 58.5312C13.8438 59.0312 14.375 59.3125 14.9375 59.3125C15.125 59.3125 15.3125 59.2813 15.4688 59.2188L23.25 56.0938C24.875 57.3438 26.625 58.375 28.5313 59.1562L29.7188 67.4375C29.8125 68.1875 30.4688 68.75 31.25 68.75H43.75C44.5313 68.75 45.1875 68.1875 45.2813 67.4375L46.4688 59.1562C48.375 58.375 50.125 57.3125 51.75 56.0938L59.5313 59.2188C59.7188 59.2813 59.9063 59.3125 60.0938 59.3125C60.625 59.3125 61.1563 59.0312 61.4375 58.5312L67.6875 47.7188C68.0625 47.0312 67.9063 46.1875 67.3125 45.7188L60.7188 40.5625ZM54.5313 35.2188C54.6563 36.1875 54.6876 36.8438 54.6876 37.5C54.6876 38.1562 54.6251 38.8438 54.5313 39.7812L54.0938 43.3125L56.8751 45.5L60.2501 48.125L58.0626 51.9062L54.0938 50.3125L50.8438 49L48.0313 51.125C46.6876 52.125 45.4063 52.875 44.1251 53.4062L40.8126 54.75L40.3126 58.2812L39.6876 62.5H35.3126L34.7188 58.2812L34.2188 54.75L30.9063 53.4062C29.5626 52.8438 28.3126 52.125 27.0626 51.1875L24.2188 49L20.9063 50.3438L16.9376 51.9375L14.7501 48.1562L18.1251 45.5312L20.9063 43.3438L20.4688 39.8125C20.3751 38.8438 20.3126 38.125 20.3126 37.5C20.3126 36.875 20.3751 36.1562 20.4688 35.2188L20.9063 31.6875L18.1251 29.5L14.7501 26.875L16.9376 23.0938L20.9063 24.6875L24.1563 26L26.9688 23.875C28.3126 22.875 29.5938 22.125 30.8751 21.5938L34.1876 20.25L34.6876 16.7188L35.3126 12.5H39.6563L40.2501 16.7188L40.7501 20.25L44.0626 21.5938C45.4063 22.1562 46.6563 22.875 47.9063 23.8125L50.7501 26L54.0626 24.6562L58.0313 23.0625L60.2188 26.8438L56.8751 29.5L54.0938 31.6875L54.5313 35.2188ZM37.5 25C30.5938 25 25 30.5938 25 37.5C25 44.4062 30.5938 50 37.5 50C44.4062 50 50 44.4062 50 37.5C50 30.5938 44.4062 25 37.5 25ZM37.5 43.75C34.0625 43.75 31.25 40.9375 31.25 37.5C31.25 34.0625 34.0625 31.25 37.5 31.25C40.9375 31.25 43.75 34.0625 43.75 37.5C43.75 40.9375 40.9375 43.75 37.5 43.75Z" fill="white"/>
</g>
<defs>
<filter id="filter0_d" x="-4" y="-2" width="83" height="83" filterUnits="userSpaceOnUse" color-interpolation-filters="sRGB">
<feFlood flood-opacity="0" result="BackgroundImageFix"/>
<feColorMatrix in="SourceAlpha" type="matrix" values="0 0 0 0 0 0 0 0 0 0 0 0 0 0 0 0 0 0 127 0"/>
<feOffset dy="2"/>
<feGaussianBlur stdDeviation="2"/>
<feColorMatrix type="matrix" values="0 0 0 0 0 0 0 0 0 0 0 0 0 0 0 0 0 0 0.25 0"/>
<feBlend mode="normal" in2="BackgroundImageFix" result="effect1_dropShadow"/>
<feBlend mode="normal" in="SourceGraphic" in2="effect1_dropShadow" result="shape"/>
</filter>
</defs>
</svg>
